<svg width="1024" height="1024" viewBox="0 0 1024 1024" xmlns="http://www.w3.org/2000/svg">
  <defs>
    <linearGradient id="grad" x1="0%" y1="0%" x2="0%" y2="100%">
      <stop offset="0%" stop-color="#4BA3FF"/>
      <stop offset="100%" stop-color="#2481CC"/>
    </linearGradient>
  </defs>
  
  <rect width="1024" height="1024" rx="220" fill="url(#grad)"/>

  <g transform="translate(76.5, 1039) scale(0.170000,-0.170000)" fill="white" stroke="none">
    
<path d="M2783 4883 c-28 -5 -109 -77 -128 -112 -7 -15 -34 -106 -59 -202 -68
-265 -171 -663 -200 -769 -13 -52 -45 -176 -71 -275 -25 -99 -53 -190 -61
-202 -25 -39 -84 -24 -98 25 -2 9 -18 73 -35 142 -16 69 -57 235 -90 370 -32
135 -87 362 -121 505 -34 143 -68 279 -76 302 -20 54 -89 118 -145 133 -96 26
-212 -20 -255 -101 -7 -15 -18 -48 -24 -73 -11 -51 -7 -72 205 -1016 96 -427
107 -485 107 -575 1 -55 -4 -117 -10 -137 -8 -28 -7 -38 1 -38 6 0 61 15 122
34 60 19 171 52 245 74 74 22 189 57 255 77 205 63 249 75 282 75 29 0 33 4
51 53 73 196 141 426 212 712 44 182 105 429 135 550 58 234 60 264 24 335
-47 94 -146 136 -266 113z"/>
<path d="M2968 3500 c-48 -26 -71 -60 -111 -166 -41 -106 -87 -248 -87 -265 0
-7 10 -33 22 -58 18 -37 23 -63 23 -136 0 -104 -19 -169 -71 -247 -19 -28 -33
-57 -30 -64 9 -23 70 -47 121 -47 55 0 98 18 133 56 13 13 77 152 143 308 67
156 131 304 142 329 16 32 22 64 22 112 0 58 -4 71 -31 110 -46 63 -95 88
-174 87 -45 0 -77 -6 -102 -19z"/>
<path d="M3435 3252 c-16 -11 -39 -30 -51 -43 -12 -13 -71 -144 -132 -292
-125 -299 -133 -334 -89 -412 64 -114 252 -111 313 6 31 60 196 446 216 505
32 92 11 161 -67 220 -49 37 -144 45 -190 16z"/>
<path d="M2565 2991 c-348 -103 -779 -237 -821 -256 -181 -80 -271 -284 -229
-520 61 -351 273 -636 591 -794 297 -147 630 -147 933 1 l109 54 54 -17 c331
-107 478 -148 478 -136 0 2 -38 120 -85 263 -47 142 -85 263 -85 268 0 5 16
43 36 84 74 158 111 385 89 558 l-7 58 -32 -63 c-65 -131 -149 -186 -281 -186
-67 0 -88 5 -130 27 -52 27 -90 63 -121 113 -10 17 -19 32 -20 34 -2 1 -19 -9
-38 -24 -100 -76 -246 -73 -358 6 l-29 21 -119 -59 c-66 -32 -119 -60 -120
-63 0 -3 24 -19 53 -37 80 -48 141 -107 195 -187 55 -83 108 -229 98 -271 -14
-54 -100 -51 -112 4 -46 220 -204 381 -419 426 -78 16 -95 28 -95 66 0 37 22
51 140 83 145 41 286 114 352 184 71 74 99 130 106 208 6 78 -4 130 -29 155
-23 23 -27 23 -104 0z"/>

  </g>
</svg>